<svg xmlns="http://www.w3.org/2000/svg" width="33.313" height="25.91" viewBox="0 0 33.313 25.91">
  <path id="Icon_awesome-address-card" data-name="Icon awesome-address-card" d="M30.537,2.25H2.776A2.777,2.777,0,0,0,0,5.026V25.384A2.777,2.777,0,0,0,2.776,28.16H30.537a2.777,2.777,0,0,0,2.776-2.776V5.026A2.777,2.777,0,0,0,30.537,2.25ZM10.179,7.8a3.7,3.7,0,1,1-3.7,3.7A3.7,3.7,0,0,1,10.179,7.8Zm6.478,13.7a1.213,1.213,0,0,1-1.3,1.11H5A1.213,1.213,0,0,1,3.7,21.5v-1.11a3.642,3.642,0,0,1,3.887-3.331h.289a5.957,5.957,0,0,0,4.6,0h.289a3.642,3.642,0,0,1,3.887,3.331Zm12.955-3.054a.464.464,0,0,1-.463.463H20.821a.464.464,0,0,1-.463-.463v-.925a.464.464,0,0,1,.463-.463h8.328a.464.464,0,0,1,.463.463Zm0-3.7a.464.464,0,0,1-.463.463H20.821a.464.464,0,0,1-.463-.463v-.925a.464.464,0,0,1,.463-.463h8.328a.464.464,0,0,1,.463.463Zm0-3.7a.464.464,0,0,1-.463.463H20.821a.464.464,0,0,1-.463-.463v-.925a.464.464,0,0,1,.463-.463h8.328a.464.464,0,0,1,.463.463Z" transform="translate(0 -2.25)" fill="#480ca8"/>
</svg>
