<svg xmlns="http://www.w3.org/2000/svg" width="30" height="30.02" viewBox="0 0 30 30.02">
  <g id="Enter_your_address" data-name="Enter your address" transform="translate(-114.803 -204.774)">
    <path id="Path_3011" data-name="Path 3011" d="M210.708,215.8a11.005,11.005,0,0,1,21.949-1.173,12.451,12.451,0,0,1-1.227,6.331,44.158,44.158,0,0,1-5.452,8.923q-1.753,2.33-3.69,4.511c-.458.516-.628.487-1.153.024s-.882-.941-.505-1.677a1.7,1.7,0,0,0,.083-.781q0-3.561,0-7.123a3.745,3.745,0,0,0-1.619-3.206q-2.812-2.042-5.622-4.087a3.725,3.725,0,0,0-2.412-.756c-.3.013-.389-.074-.355-.361A5.407,5.407,0,0,0,210.708,215.8Z" transform="translate(-87.906)" fill="#480ca8"/>
    <path id="Path_3012" data-name="Path 3012" d="M131.8,371.087c0,1.193,0,2.386,0,3.579a2.706,2.706,0,0,1-2.813,2.8q-.957,0-1.915,0a1.616,1.616,0,0,1-1.768-1.749c0-1.151,0-2.3,0-3.454,0-.586-.209-.79-.8-.791-.819,0-1.637,0-2.456,0-.508,0-.734.227-.735.735,0,1.179,0,2.359,0,3.538a1.588,1.588,0,0,1-1.709,1.716,14,14,0,0,1-2.7-.078,2.65,2.65,0,0,1-2.087-2.571q-.016-3.746,0-7.492a2.5,2.5,0,0,1,1.055-2.075q2.93-2.157,5.89-4.273a2.6,2.6,0,0,1,3.111.01q2.924,2.094,5.821,4.227a2.626,2.626,0,0,1,1.106,2.219C131.8,368.645,131.8,369.866,131.8,371.087Z" transform="translate(0 -142.69)" fill="#480ca8"/>
    <path id="Path_3013" data-name="Path 3013" d="M302.829,286.737a4,4,0,1,1-3.973-4.017A4.017,4.017,0,0,1,302.829,286.737Z" transform="translate(-165.023 -71.446)" fill="#fff"/>
  </g>
</svg>
