<svg xmlns="http://www.w3.org/2000/svg" width="30" height="30.024" viewBox="0 0 30 30.024">
  <g id="Group_32753" data-name="Group 32753" transform="translate(-121.33 -175.697)">
    <path id="Path_3004" data-name="Path 3004" d="M227.16,183.911a10.522,10.522,0,0,1-.875,4.365,35.122,35.122,0,0,1-4.926,8.2c-.458.6-.935,1.187-1.425,1.761a.859.859,0,0,1-1.412.022,38.615,38.615,0,0,1-6.378-9.992,9.865,9.865,0,0,1-.086-7.966,7.25,7.25,0,0,1,5.967-4.524,7.865,7.865,0,0,1,9.1,7.586C227.134,183.547,227.148,183.729,227.16,183.911Z" transform="translate(-82.894)" fill="#480ca8"/>
    <path id="Path_3005" data-name="Path 3005" d="M248.889,386.041c.486-.247.962-.482,1.43-.732.181-.1.229.045.3.136.389.472.767.953,1.159,1.423a2.653,2.653,0,0,0,4.25,0,46.944,46.944,0,0,0,5.225-7.52.35.35,0,0,1,.356-.231c.351.014.7.01,1.055,0a.928.928,0,0,1,.932.633q1.082,2.526,2.165,5.051c.148.346.284.7.45,1.036.111.226.1.34-.152.47q-4.265,2.192-8.516,4.409c-.8.413-1.6.819-2.388,1.239a.311.311,0,0,1-.439-.046q-2.854-2.865-5.719-5.718A1.447,1.447,0,0,1,248.889,386.041Z" transform="translate(-117.58 -187.502)" fill="#480ca8"/>
    <path id="Path_3006" data-name="Path 3006" d="M135.635,485.4a1.321,1.321,0,0,1-.912.294q-6.157-.014-12.314-.006c-.95,0-1.286-.549-.955-1.442a2.317,2.317,0,0,1,1.258-1.364c2.219-1.085,4.407-2.232,6.605-3.358.181-.092.325-.161.515.031q2.824,2.842,5.665,5.667A1.694,1.694,0,0,1,135.635,485.4Z" transform="translate(0 -279.974)" fill="#480ca8"/>
    <path id="Path_3007" data-name="Path 3007" d="M142.256,387.889c.39-.916.743-1.749,1.1-2.581.841-1.957,1.692-3.91,2.519-5.873a1.17,1.17,0,0,1,1.1-.75,1.5,1.5,0,0,1,1.73.993,24.189,24.189,0,0,0,2.228,3.477c.123.17.154.256-.071.37q-4.188,2.124-8.368,4.265C142.45,387.814,142.4,387.83,142.256,387.889Z" transform="translate(-19.289 -187.09)" fill="#480ca8"/>
    <path id="Path_3008" data-name="Path 3008" d="M348.478,496.836q4.791-2.483,9.583-4.965c.786-.407.785-.4,1.133.418.448,1.052.9,2.1,1.356,3.15.4.921.035,1.471-.971,1.471H348.493Z" transform="translate(-209.377 -291.195)" fill="#480ca8"/>
    <path id="Path_3009" data-name="Path 3009" d="M281.755,248.559a2.634,2.634,0,1,1,2.654-2.61A2.646,2.646,0,0,1,281.755,248.559Z" transform="translate(-145.432 -62.307)" fill="#f5f9fb"/>
    <path id="Path_3010" data-name="Path 3010" d="M303.59,266.5a.873.873,0,1,1-1.745.032.873.873,0,1,1,1.745-.032Z" transform="translate(-166.393 -82.897)" fill="#480ca8"/>
  </g>
</svg>
