<svg xmlns="http://www.w3.org/2000/svg" width="38.622" height="30" viewBox="0 0 38.622 30">
  <g id="gender-symbols" transform="translate(0 -27.635)">
    <path id="Path_2980" data-name="Path 2980" d="M132.031,48.651v-2.59h1.56V42.785h-1.56v-2.34h-3.9v2.34h-1.716v3.276h1.716v2.562a9.962,9.962,0,1,0,3.9.028Zm-1.973,15.788a6.048,6.048,0,1,1,6.048-6.048A6.055,6.055,0,0,1,130.059,64.439Z" transform="translate(-101.352 -10.812)" fill="#480ca8"/>
    <path id="Path_2981" data-name="Path 2981" d="M19.9,37.583A9.951,9.951,0,1,0,8.06,47.352v4.366l-1.277-1.1-2.1,2.5,5.35,4.515,5.512-4.5-2.1-2.538L11.96,51.794V47.321A9.977,9.977,0,0,0,19.9,37.583Zm-15.97,0A6.048,6.048,0,1,1,9.98,43.631,6.055,6.055,0,0,1,3.932,37.583Z" fill="#480ca8"/>
  </g>
</svg>
