<svg xmlns="http://www.w3.org/2000/svg" width="41.722" height="31.024" viewBox="0 0 41.722 31.024">
  <g id="Group_33104" data-name="Group 33104" transform="translate(-994.974 -2967.981)">
    <g id="Group_33103" data-name="Group 33103" transform="translate(994.974 2967.981)">
      <path id="Path_4122" data-name="Path 4122" d="M6.4,8.755,4.763,14a71.474,71.474,0,0,1,12.252,2.385,71.331,71.331,0,0,1,11.436,5.01l1.663-5.333s-5-5.036-10.947-6.893S6.4,8.755,6.4,8.755Z" transform="translate(1.751 2.363)" fill="#2e2783"/>
      <path id="Path_4123" data-name="Path 4123" d="M41.722,18.982,39.775,16.94l.191-.62s1.715-3.154-2.6-2.571a.723.723,0,0,0-.434.207L24.076.482,0,5.8,6.621,11.71l.356-1.139s7.606-1.613,14.238.457,12.206,7.687,12.206,7.687L32.8,20.7l4.973-.96c-.829,2.651-1.781,5.7-2.078,6.65l-1.416-.443-1.029,3.291,2.292-.714,1.685,1.957,1.026-3.291-1.531-.48,2.249-7.2Zm-2.85-.737a1.044,1.044,0,1,1-.685-1.306A1.043,1.043,0,0,1,38.871,18.245ZM37.9,14.973c.543-.161,1.465-.328,1.22.457-.025.077-.092.3-.2.62Z" transform="translate(0 -0.482)" fill="#2e2783"/>
    </g>
    <path id="Path_4121" data-name="Path 4121" d="M10.571,5.811C10.034,5.451,5.437,2.32,4.2.128L4.13.007,3.99,0A3.3,3.3,0,0,0,1.738.9Q1.52.675,1.294.441L1.114.257.935.443a2.518,2.518,0,0,0-.921,2.01A1.765,1.765,0,0,0,.991,3.7c.1.058,1.286.863,2.573,1.891a15.788,15.788,0,0,1-1.323.958c-.329.233-1.7,1.478-1.7,1.478l.886.209.307.6a6.57,6.57,0,0,1,.882-1.539,5.164,5.164,0,0,1,1.268-.915,12.6,12.6,0,0,0-.749,1.227,5.391,5.391,0,0,0-.392,1.651l.541-.171.373.814A11.477,11.477,0,0,1,3.987,8,4.4,4.4,0,0,1,4.8,6.619C6.428,8.055,8.132,9.79,8.473,10.14a1.488,1.488,0,0,0,.819.487,1.756,1.756,0,0,0,.373.04,2.129,2.129,0,0,0,1.807-1.21,2.722,2.722,0,0,0-.229-3.18A1.784,1.784,0,0,0,10.571,5.811ZM3.653,5.022C2.473,4.093,1.4,3.354,1.239,3.265a1.279,1.279,0,0,1-.729-.884,1.868,1.868,0,0,1,.612-1.4C2.276,2.161,3.263,3.1,4.1,3.844A2.294,2.294,0,0,0,3.653,5.022Zm.733-1.593c-.665-.592-1.427-1.308-2.3-2.178A2.887,2.887,0,0,1,3.837.5a11.273,11.273,0,0,0,1.9,2.174A1.95,1.95,0,0,0,4.386,3.428Zm.507,2.614A3.949,3.949,0,0,1,5.258,4.83,12.044,12.044,0,0,0,7.924,6.616a7.708,7.708,0,0,0,.014,2.277C7.15,8.113,5.991,6.993,4.894,6.042Zm6.146,3.173a1.575,1.575,0,0,1-1.638.926c-1.26-.278-1.116-2.727-.954-3.647l.041-.233-.231-.054A9.586,9.586,0,0,1,5.526,4.4a2.437,2.437,0,0,1,1.39-.7C8.01,4.614,9.1,5.4,9.751,5.853a.6.6,0,0,0-.055.03,2.317,2.317,0,0,0-.9,2.249c.191.694.655,1.14,1.143,1.131.208-.008.716-.125.9-1.053l.029-.144-.111-.094c-.7-.6-1.086-.954-1.268-1.131a1.25,1.25,0,0,1,.453-.526c.279-.157.6-.054.945.308A2.234,2.234,0,0,1,11.039,9.215Zm-.723-.962c-.087.316-.233.506-.4.51H9.91c-.207,0-.5-.264-.636-.764A1.4,1.4,0,0,1,9.3,7.354C9.509,7.547,9.831,7.839,10.317,8.254Z" transform="translate(1004.126 2988.981) rotate(-20)" fill="#2e2783"/>
  </g>
</svg>
