<svg xmlns="http://www.w3.org/2000/svg" width="30.296" height="30" viewBox="0 0 30.296 30">
  <g id="layer1" transform="translate(-0.53 -280.676)">
    <path id="path6296" d="M15.492,280.7.859,286.238a.505.505,0,0,0,.034.958l7.755,2.329v-2.235A1.515,1.515,0,0,1,9.9,285.8a32.514,32.514,0,0,1,11.646,0,1.515,1.515,0,0,1,1.245,1.491v2.249l3.5-1.022.006.722a.513.513,0,0,0-.518.5v2.013a.5.5,0,0,0,.5.507l1.02.011a.506.506,0,0,0,.5-.507v-2.013a.506.506,0,0,0-.5-.5l0-1.029,3.158-.921a.505.505,0,0,0,.04-.958L15.85,280.709a.515.515,0,0,0-.2-.034.524.524,0,0,0-.16.03Zm.231,5.573a31.727,31.727,0,0,0-5.648.511.505.505,0,0,0-.417.5v4.857a.505.505,0,0,0,.6.5,30.27,30.27,0,0,1,10.926,0,.505.505,0,0,0,.6-.5v-4.858a.505.505,0,0,0-.413-.5,31.612,31.612,0,0,0-5.641-.511ZM1.582,293.593a9.309,9.309,0,0,0-.011,8.556.505.505,0,0,0,.909,0,9.313,9.313,0,0,0,0-8.56.506.506,0,0,0-.9.008Zm17.153,3.251a4.5,4.5,0,0,1,1.443,3.288,4.45,4.45,0,0,1-.4,1.846c3.43.063,6.89.208,10.491.455a.505.505,0,0,0,.488-.723,8.137,8.137,0,0,1,.011-7.628.5.5,0,0,0-.463-.727c-3.869.246-7.549.44-11.2.492a1.515,1.515,0,0,1,.028.944,10.7,10.7,0,0,0-.395,2.055Zm-6.509-3.032c-2.853-.068-5.754-.234-8.7-.4a10.412,10.412,0,0,1-.021,8.932h0c2.743-.169,5.416-.285,8.056-.347a4.455,4.455,0,0,1-.411-1.863,4.5,4.5,0,0,1,1.416-3.266,12.333,12.333,0,0,0-.379-2.125,1.093,1.093,0,0,1,.043-.929Zm.934.672a12.833,12.833,0,0,1,.435,2.791,3.972,3.972,0,0,0-1.44,2.857,3.506,3.506,0,1,0,5.542-2.846,11.771,11.771,0,0,1,.465-2.784.505.505,0,0,0-.488-.649c-1.326.008-2.652-.019-4.028-.015a.5.5,0,0,0-.505.5m2.52,4.307a1.486,1.486,0,1,1-1.484,1.484A1.463,1.463,0,0,1,15.659,298.648Zm3.878,3.778a4.546,4.546,0,0,1-3.416,2.2L19.1,310.4a.505.505,0,0,0,.947-.15l.31-1.819,1.662.809a.505.505,0,0,0,.668-.686Zm-7.747.011-3.148,6.12a.505.505,0,0,0,.671.686l1.663-.809.309,1.819a.505.505,0,0,0,.944.15l2.981-5.776a4.539,4.539,0,0,1-3.42-2.189Z" transform="translate(0)" fill="#2e2783"/>
  </g>
</svg>
