<svg xmlns="http://www.w3.org/2000/svg" width="26.267" height="30" viewBox="0 0 26.267 30">
  <g id="Professional_Status" data-name="Professional Status" transform="translate(-167.656 -267.755)">
    <path id="Path_3014" data-name="Path 3014" d="M180.775,297.753H169.932c-1.557,0-2.277-.722-2.268-2.295a10.8,10.8,0,0,1,.26-3.329,9.4,9.4,0,0,1,3.827-4.814,15.566,15.566,0,0,1,3.563-1.811,2.057,2.057,0,0,0,1.342-1.486.575.575,0,0,0-.3-.719,8.247,8.247,0,0,1-3.973-7.764,8.4,8.4,0,1,1,16.743,1.28,8.053,8.053,0,0,1-3.888,6.429.7.7,0,0,0-.333.95,2.11,2.11,0,0,0,1.347,1.348,13.928,13.928,0,0,1,5.639,3.7,7.244,7.244,0,0,1,2.024,5.3c-.017.384,0,.771,0,1.156a1.918,1.918,0,0,1-2.072,2.052c-1.431.008-2.862,0-4.293,0Z" fill="#480ca8"/>
    <path id="Path_3015" data-name="Path 3015" d="M266.32,435.075c.98,0,1.05.047,1.287.967.386,1.5.751,3.012,1.152,4.511a1.166,1.166,0,0,1-.363,1.281c-.483.448-.927.937-1.405,1.391a.864.864,0,0,1-1.351,0c-.452-.427-.86-.905-1.335-1.3a1.346,1.346,0,0,1-.425-1.568c.391-1.407.738-2.826,1.1-4.241C265.244,435.1,265.277,435.075,266.32,435.075Z" transform="translate(-85.55 -148.889)" fill="#fff"/>
  </g>
</svg>
