<svg id="teach" xmlns="http://www.w3.org/2000/svg" width="30" height="30" viewBox="0 0 30 30">
  <path id="Path_2987" data-name="Path 2987" d="M4.645,128.533a4.645,4.645,0,1,0,4.645,4.645A4.65,4.65,0,0,0,4.645,128.533Z" transform="translate(0 -121.002)" fill="#480ca8"/>
  <path id="Path_2988" data-name="Path 2988" d="M87.27,0H67.5a3.236,3.236,0,0,0-3.232,3.232v2.6a6.4,6.4,0,0,1,7.281,6.342,6.368,6.368,0,0,1-1.228,3.766,6.414,6.414,0,0,1,.434.68l5.067-5.067A.879.879,0,1,1,77.065,12.8l-5.642,5.642a6.41,6.41,0,0,1,.126,1.268v.879H87.27A3.236,3.236,0,0,0,90.5,17.353V3.232A3.236,3.236,0,0,0,87.27,0Z" transform="translate(-60.502 0)" fill="#480ca8"/>
  <path id="Path_2989" data-name="Path 2989" d="M4.645,295.4a6.371,6.371,0,0,1-3.926-1.348A4.615,4.615,0,0,0,0,296.53V300.3a.879.879,0,0,0,.879.879H.941v4.77a.879.879,0,0,0,.879.879H7.469a.879.879,0,0,0,.879-.879v-4.77H8.41a.879.879,0,0,0,.879-.879V296.53a4.615,4.615,0,0,0-.719-2.477A6.37,6.37,0,0,1,4.645,295.4Z" transform="translate(0 -276.823)" fill="#480ca8"/>
</svg>
