<svg xmlns="http://www.w3.org/2000/svg" width="30" height="30" viewBox="0 0 30 30">
  <path id="tollfree" d="M14.681,22.663a18.434,18.434,0,0,0,4.687-3.292A18.789,18.789,0,0,0,22.655,14.7c.749-1.523,1.534-3.727,1.02-5.582a4.167,4.167,0,0,0-3.339-2.9,1.525,1.525,0,0,0-1.705.722l-1.62,2.805a1.521,1.521,0,0,0,.244,1.855l.879.879a.579.579,0,0,1,.123.669,9.739,9.739,0,0,1-5.12,5.12.58.58,0,0,1-.669-.123l-.879-.879a1.521,1.521,0,0,0-1.855-.244L6.93,18.634a1.525,1.525,0,0,0-.723,1.705,6.683,6.683,0,0,0,.272.849c-.882,1.043-1.708,1.438-2.457,1.173-.812-.287-1.6-1.321-2.207-2.913A13.357,13.357,0,0,1,.938,15,14.062,14.062,0,1,1,15,29.062a13.921,13.921,0,0,1-8.641-2.968.469.469,0,0,0-.577.739,15,15,0,0,0,19.825-1.227A15,15,0,0,0,4.394,4.393,14.9,14.9,0,0,0,0,15a14.355,14.355,0,0,0,.941,4.785c.5,1.31,1.392,2.974,2.769,3.461.751.266,1.9.253,3.228-1.164a3.707,3.707,0,0,0,2.173,1.59,4.836,4.836,0,0,0,1.288.165,10.285,10.285,0,0,0,4.282-1.174Z" fill="#480ca8" fill-rule="evenodd"/>
</svg>
