<svg xmlns="http://www.w3.org/2000/svg" width="30" height="30" viewBox="0 0 30 30">
  <g id="vaccine" transform="translate(0 0)">
    <path id="Path_2990" data-name="Path 2990" d="M284.71,73.638l1.245-1.245,1.244,1.244,1.243-1.243-8.707-8.707-1.243,1.243,1.244,1.244-1.245,1.245Zm0,0" transform="translate(-262.174 -59.956)" fill="#480ca8"/>
    <path id="Path_2991" data-name="Path 2991" d="M15.075,148.594l-7.988,7.988a4.393,4.393,0,0,0-1.242,3.73l-3.111,3.111,1.244,1.244L0,168.644l1.243,1.243,3.978-3.978,1.244,1.244,3.111-3.111a4.393,4.393,0,0,0,3.73-1.242l7.988-7.988Zm0,0" transform="translate(0 -139.888)" fill="#480ca8"/>
    <path id="Path_2992" data-name="Path 2992" d="M367.136,8.706l2.489-2.489,1.244,1.244,1.243-1.243L365.893,0,364.65,1.243l1.244,1.244-2.489,2.489Zm0,0" transform="translate(-342.112)" fill="#480ca8"/>
  </g>
</svg>
