<svg xmlns="http://www.w3.org/2000/svg" width="20.45" height="33.219" viewBox="0 0 20.45 33.219">
  <g id="Why_do_you_want_to_volunteer" data-name="Why do you want to volunteer" transform="translate(-148.39 -170.066)">
    <path id="Path_3016" data-name="Path 3016" d="M163.2,191.78a4.231,4.231,0,0,0,.7.8.634.634,0,0,0,.894-.037.627.627,0,0,0,.021-.9c-.584-.769-1.178-1.529-1.768-2.292q-.568-.735-1.135-1.471a.828.828,0,0,1-.235-.428,3.337,3.337,0,0,1,1.05.239c.661.191,1.188.035,1.322-.422.109-.372-.043-.888-.806-1.127a40.823,40.823,0,0,0-4.21-1.4c-.423-.084-.849-.158-1.278-.2a1.434,1.434,0,0,1-1.018-.585q-1.293-1.677-2.571-3.365a1.183,1.183,0,0,1-.231-.728c-.011-2.061-.039-4.122-.028-6.183a1.514,1.514,0,1,1,3.019.056c.008,2.335,0,4.67,0,7.005,0,.144,0,.289,0,.432.013.22.021.465.326.461a.459.459,0,0,0,.477-.461,3.728,3.728,0,0,0,.008-.389q0-4.54,0-9.081a1.545,1.545,0,0,1,1.351-1.63,1.525,1.525,0,0,1,1.68,1.515c.018.735.005,1.47.005,2.205q0,3.5,0,7.005a2.863,2.863,0,0,0,.016.431.448.448,0,0,0,.439.4.434.434,0,0,0,.493-.331,2,2,0,0,0,.056-.511q0-4,0-8a1.5,1.5,0,0,1,1.014-1.625,1.475,1.475,0,0,1,1.964,1.189,4.654,4.654,0,0,1,.038.646q0,4.389,0,8.778c0,.613.132.85.478.863.375.015.512-.215.512-.865,0-2.018-.009-4.036,0-6.054a1.516,1.516,0,0,1,2.275-1.417,1.466,1.466,0,0,1,.749,1.191c.016.157.01.317.01.475,0,4.339-.018,8.677.008,13.016a10.932,10.932,0,0,1-1.625,6.082,8.1,8.1,0,0,0-1.284,5.01,24.269,24.269,0,0,1-.049,2.463c-.019.514-.245.735-.756.736q-3.891.007-7.782,0c-.566,0-.784-.248-.778-.848.007-.663-.011-1.329.046-1.988A8.341,8.341,0,0,0,154.8,194.6c-2.172-2.913-4.017-6.038-5.969-9.093a2.157,2.157,0,0,1-.4-1.674,1.789,1.789,0,0,1,2.957-.953,3.674,3.674,0,0,1,.6.68c.494.656.963,1.332,1.482,1.966a4.418,4.418,0,0,1,1.065,2.452,4.355,4.355,0,0,0,.964,2.274c1.172,1.533,2.357,3.057,3.536,4.584a1.6,1.6,0,0,0,.112.132.65.65,0,1,0,1.02-.8c-.443-.6-.91-1.19-1.367-1.783-.088-.114-.178-.227-.264-.342s-.21-.284-.05-.417c.2-.163.311.024.415.158q1.087,1.4,2.168,2.8c.079.1.156.208.24.305a.676.676,0,0,0,.954.176.661.661,0,0,0,.089-.961c-.374-.512-.77-1.007-1.157-1.508-.326-.422-.655-.841-.978-1.265-.1-.134-.26-.287-.065-.445s.308.033.41.164q1.154,1.484,2.3,2.971a1.65,1.65,0,0,0,.258.288.605.605,0,0,0,.828,0,.594.594,0,0,0,.157-.779,5.739,5.739,0,0,0-.4-.606.985.985,0,0,0-.271-.353l0,.006a.757.757,0,0,0-.269-.347l0,0a3.116,3.116,0,0,0-.616-.789,7.294,7.294,0,0,1-.929-1.2c.008-.127-.335-.337.087-.367l.354.438a2.057,2.057,0,0,0,.277.33l0-.006a.852.852,0,0,0,.268.348l0-.005a.689.689,0,0,0,.269.346l0,0C162.91,191.525,163.111,191.611,163.2,191.78Z" fill="#480ca8"/>
    <path id="Path_3017" data-name="Path 3017" d="M312.142,417.149a1.209,1.209,0,0,1,.616.789A4.083,4.083,0,0,1,312.142,417.149Z" transform="translate(-149.582 -225.704)" fill="#480ca8"/>
    <path id="Path_3018" data-name="Path 3018" d="M299.689,397.92c-.295.059-.019.254-.087.367-.133-.1-.234-.228-.125-.394C299.534,397.807,299.638,397.763,299.689,397.92Z" transform="translate(-137.972 -208.043)" fill="#480ca8"/>
    <path id="Path_3019" data-name="Path 3019" d="M316.056,416.2c-.158-.117-.352-.207-.323-.456A.864.864,0,0,1,316.056,416.2Z" transform="translate(-152.86 -224.417)" fill="#480ca8"/>
    <path id="Path_3020" data-name="Path 3020" d="M306.777,404.412a.361.361,0,0,1-.277-.33A.557.557,0,0,1,306.777,404.412Z" transform="translate(-144.429 -213.767)" fill="#480ca8"/>
    <path id="Path_3021" data-name="Path 3021" d="M309.915,408.178a.319.319,0,0,1-.268-.348A.734.734,0,0,1,309.915,408.178Z" transform="translate(-147.302 -217.191)" fill="#480ca8"/>
    <path id="Path_3022" data-name="Path 3022" d="M312.953,412.133a.3.3,0,0,1-.269-.346A.76.76,0,0,1,312.953,412.133Z" transform="translate(-150.076 -220.806)" fill="#480ca8"/>
    <path id="Path_3023" data-name="Path 3023" d="M319.214,426.207a.311.311,0,0,1,.269.347A.726.726,0,0,1,319.214,426.207Z" transform="translate(-156.042 -233.978)" fill="#480ca8"/>
    <path id="Path_3024" data-name="Path 3024" d="M322.266,430.153a.337.337,0,0,1,.271.353A.79.79,0,0,1,322.266,430.153Z" transform="translate(-158.83 -237.582)" fill="#480ca8"/>
  </g>
</svg>
