<svg xmlns="http://www.w3.org/2000/svg" width="22.389" height="30" viewBox="0 0 22.389 30">
  <g id="Part_time_Volunteer" data-name="Part time Volunteer" transform="translate(-182.433 -208.625)">
    <path id="Path_3045" data-name="Path 3045" d="M224.537,451.067l2.723.963c1.048.37,2.094.743,3.146,1.1a.286.286,0,0,1,.222.3,1.518,1.518,0,0,0,3.035.006.291.291,0,0,1,.22-.3c1.9-.663,3.795-1.336,5.692-2a1.426,1.426,0,0,1,.2-.035v1.617q0,2.307,0,4.614a1.028,1.028,0,0,1-1.149,1.149q-6.476,0-12.953,0a1.029,1.029,0,0,1-1.151-1.147q0-2.963,0-5.926C224.519,451.305,224.529,451.21,224.537,451.067Z" transform="translate(-38.517 -221.89)" fill="#2e2783"/>
    <path id="Path_3046" data-name="Path 3046" d="M186.589,212.085c0-.932,0-1.864,0-2.8,0-.437.2-.695.527-.662.388.039.494.3.493.658-.006,1.835.012,3.671-.014,5.506-.006.395.119.5.469.44a.687.687,0,0,1,.211,0c.271.042.356-.056.353-.34-.015-1.44-.007-2.88-.007-4.32,0-.1,0-.2,0-.3.009-.408.2-.64.517-.635s.5.236.5.651c0,1.793,0,3.586.008,5.379a.489.489,0,0,1-.271.464,5.026,5.026,0,0,0-2.271,3.785c-.036.3.028.455.367.4a1.814,1.814,0,0,1,.423,0c.16.011.211-.045.224-.212a3.99,3.99,0,0,1,2.144-3.334.729.729,0,0,0,.4-.728c-.016-.734-.008-1.468,0-2.2,0-.411.192-.642.51-.641s.507.233.507.644c0,1.666.017,3.332-.006,5a4.209,4.209,0,0,1-1.088,2.821,1.647,1.647,0,0,0-.438,1.257c.028.955.008.955-.947.955-1.6,0-3.191-.009-4.787.008-.3,0-.413-.077-.363-.372.012-.069,0-.141,0-.211a3.154,3.154,0,0,0-.744-2.6,3.521,3.521,0,0,1-.779-2.45c-.008-2.132,0-4.264,0-6.4a.624.624,0,0,1,.234-.6.456.456,0,0,1,.48-.041.549.549,0,0,1,.309.553c0,1.031.008,2.062-.008,3.092,0,.282.047.428.36.375a.928.928,0,0,1,.3,0c.295.047.376-.063.373-.364-.017-1.5-.008-2.993-.007-4.49,0-.5.16-.731.5-.739s.521.241.521.758c0,1.482.011,2.965-.008,4.447,0,.317.075.44.393.387a1.136,1.136,0,0,1,.338,0c.253.035.3-.082.3-.31C186.582,213.977,186.589,213.031,186.589,212.085Z" transform="translate(-0.08)" fill="#2e2783"/>
    <path id="Path_3047" data-name="Path 3047" d="M342.531,278.049c0-.932.005-1.863,0-2.795,0-.357.109-.618.5-.653.328-.029.523.228.523.666,0,1.835.011,3.67-.008,5.505,0,.345.068.461.431.44.591-.033.592-.008.592-.608,0-1.454,0-2.908,0-4.362a.556.556,0,0,1,.36-.6.471.471,0,0,1,.559.188.613.613,0,0,1,.1.4c0,1.821,0,3.642,0,5.463a.393.393,0,0,1-.239.394c-.308.17-.613.35-.9.548a3.227,3.227,0,0,0-1.394,2.319c-.032.217,0,.363.268.32a.909.909,0,0,1,.254,0c.313.041.49-.018.538-.4a2.037,2.037,0,0,1,1.056-1.505c.362-.219.724-.438,1.088-.652a.654.654,0,0,0,.346-.627c-.01-.748-.005-1.5,0-2.244,0-.443.193-.7.524-.665.388.036.5.3.5.654-.006,1.652.012,3.3-.009,4.955a4.347,4.347,0,0,1-1.149,2.927,1.227,1.227,0,0,0-.372,1.023,3.294,3.294,0,0,1,0,.381c0,.767,0,.754-.756.739-.243,0-.271-.1-.267-.3.011-.564.008-1.129,0-1.694a2.033,2.033,0,0,0-2.095-2.079c-1.059-.007-2.118-.011-3.176.005-.262,0-.339-.064-.325-.327a2,2,0,0,0-.858-1.828.37.37,0,0,1-.154-.358q0-2.753,0-5.505c0-.409.2-.654.52-.627.388.033.5.293.5.651-.007,1.03.008,2.061-.009,3.091,0,.266.071.329.329.326.692-.008.692.006.692-.676q0-2.117,0-4.235c0-.45.178-.685.508-.686s.51.236.51.684c0,1.482.018,2.965-.011,4.447-.008.407.126.517.49.461a.692.692,0,0,1,.211,0c.255.04.337-.049.332-.319C342.52,279.941,342.531,278.995,342.531,278.049Z" transform="translate(-142.803 -60.38)" fill="#2e2783"/>
    <path id="Path_3048" data-name="Path 3048" d="M232,418.334c2.145,0,4.29.01,6.435,0,1.086-.007,1.271.782,1.19,1.577-.015.149-.142.163-.24.2-1.869.667-3.74,1.327-5.606,2-.223.08-.282.012-.355-.191a1.5,1.5,0,0,0-2.844,0c-.086.252-.181.252-.4.175q-2.78-1-5.568-1.981c-.191-.067-.234-.177-.249-.37-.081-1.057.5-1.433,1.367-1.416C227.818,418.361,229.907,418.334,232,418.334Z" transform="translate(-38.368 -191.92)" fill="#2e2783"/>
    <path id="Path_3049" data-name="Path 3049" d="M182.442,441.681c0-1.65.009-3.3-.008-4.951,0-.305.086-.375.376-.364.606.023,1.214.026,1.819,0,.306-.013.366.087.364.375-.012,2.327-.007,4.655-.007,6.982a2.066,2.066,0,0,0,2.289,2.309c1.312,0,2.624.011,3.936-.008.315,0,.441.072.387.391a1.153,1.153,0,0,0,0,.338c.032.241-.063.309-.3.3-.705-.015-1.411-.005-2.116-.005-2.116,0-4.232-.006-6.348.007-.3,0-.4-.053-.4-.384C182.453,445.011,182.442,443.346,182.442,441.681Z" transform="translate(0 -208.434)" fill="#2e2783"/>
    <path id="Path_3050" data-name="Path 3050" d="M342.971,507.469c-1.412,0-2.825-.008-4.237.007-.279,0-.353-.074-.347-.349.013-.676,0-.676.691-.677,1.257,0,2.514,0,3.771,0A2.041,2.041,0,0,0,345,504.3c0-.551.008-1.1,0-1.652,0-.194.041-.272.254-.268.678.013,1.356.011,2.033,0,.2,0,.266.048.265.257-.008,1.525-.013,3.05,0,4.575,0,.308-.169.258-.347.258Z" transform="translate(-142.734 -268.851)" fill="#2e2783"/>
    <path id="Path_3051" data-name="Path 3051" d="M198.034,400.421q1.61,0,3.22,0c.171,0,.319-.033.324.242s-.14.274-.338.273c-1.031-.005-2.062,0-3.093,0a2.016,2.016,0,0,0-2.023,1.312c-.062.148-.126.224-.3.218-.381-.014-.763-.013-1.144,0-.189.007-.241-.059-.237-.241.011-.494.021-.989,0-1.482-.013-.272.078-.326.332-.322C195.859,400.429,196.947,400.421,198.034,400.421Z" transform="translate(-10.988 -175.531)" fill="#2e2783"/>
    <path id="Path_3052" data-name="Path 3052" d="M292.448,390.008c-.592,0-1.184-.008-1.775,0-.2,0-.254-.06-.26-.261-.027-.841.366-1.269,1.2-1.271.578,0,1.156,0,1.733,0a1.107,1.107,0,0,1,1.15,1.365c-.033.207-.156.159-.27.16C293.631,390.01,293.04,390.008,292.448,390.008Z" transform="translate(-98.824 -164.608)" fill="#2e2783"/>
    <path id="Path_3053" data-name="Path 3053" d="M416.068,467.1c0-.322-.126-.753.033-.937.191-.221.637-.025.966-.079.445-.073.548.114.512.523a8.711,8.711,0,0,0,0,1.226c.013.251-.083.325-.312.293a1.9,1.9,0,0,0-.211,0c-.322-.008-.751.106-.937-.058C415.9,467.869,416.076,467.428,416.068,467.1Z" transform="translate(-213.773 -235.604)" fill="#2e2783"/>
    <path id="Path_3054" data-name="Path 3054" d="M308.447,461.518a3.929,3.929,0,0,1,0-.546.475.475,0,0,1,.479-.444.464.464,0,0,1,.519.444,6.652,6.652,0,0,1,0,1.135.465.465,0,0,1-.518.444.474.474,0,0,1-.479-.444A4.395,4.395,0,0,1,308.447,461.518Z" transform="translate(-115.325 -230.548)" fill="#2e2783"/>
  </g>
</svg>
