<svg xmlns="http://www.w3.org/2000/svg" width="22.758" height="30" viewBox="0 0 22.758 30">
  <g id="_x31_2_Volunteers" transform="translate(-62.147 -0.464)">
    <g id="Group_32741" data-name="Group 32741" transform="translate(62.147 0.464)">
      <path id="Path_2993" data-name="Path 2993" d="M72.769,4.033a.731.731,0,0,0-.7.722v5.329a.465.465,0,0,1-.93,0V3.538a.731.731,0,1,0-1.462,0v6.547a.465.465,0,1,1-.93,0V1.2a.73.73,0,1,0-1.459,0v8.889a.465.465,0,1,1-.93,0V2.865a.731.731,0,0,0-1.462,0V11.99h.579a4.208,4.208,0,0,1,4.2,4.2.465.465,0,1,1-.93,0,3.275,3.275,0,0,0-3.272-3.275H64.427a.464.464,0,0,1-.465-.465V8.566a.958.958,0,0,0-.926-.967.9.9,0,0,0-.889.908v7.337a4.252,4.252,0,0,0,1.267,3.018,5.168,5.168,0,0,1,1.419,2.544h6a5.168,5.168,0,0,1,1.419-2.544,4.242,4.242,0,0,0,1.27-3.018V4.82a.777.777,0,0,0-.759-.787Z" transform="translate(-62.147 -0.464)" fill="#480ca8"/>
      <path id="Path_2994" data-name="Path 2994" d="M318.939,180.285a.417.417,0,0,0-.4.415v3.919a.465.465,0,0,1-.93,0V179.8a.417.417,0,0,0-.833,0v4.821a.465.465,0,0,1-.93,0v-6.547a.415.415,0,0,0-.83,0v6.547a.465.465,0,0,1-.93,0V179.3a.415.415,0,1,0-.83,0v6.6h.3a3.22,3.22,0,0,1,3.216,3.219.465.465,0,0,1-.93,0,2.29,2.29,0,0,0-2.287-2.29h-.768a.464.464,0,0,1-.465-.465V183.5a.588.588,0,0,0-.558-.592.545.545,0,0,0-.536.548v5.4a3,3,0,0,0,.9,2.135,3.92,3.92,0,0,1,1.047,1.809h4.245a3.9,3.9,0,0,1,1.05-1.809,3.012,3.012,0,0,0,.9-2.135v-8.121a.451.451,0,0,0-.43-.459Z" transform="translate(-296.612 -167.257)" fill="#480ca8"/>
      <path id="Path_2995" data-name="Path 2995" d="M322.523,452.239v2.278a.62.62,0,0,0,.62.62h5.573a.62.62,0,0,0,.62-.62v-2.278a.62.62,0,0,0-.62-.62h-5.573A.62.62,0,0,0,322.523,452.239Z" transform="translate(-307.239 -425.136)" fill="#480ca8"/>
      <path id="Path_2996" data-name="Path 2996" d="M320.9,8.521c0,2.927-3.967,5.659-3.967,5.659s-3.967-2.732-3.967-5.659a2.145,2.145,0,0,1,3.967-1.132A2.145,2.145,0,0,1,320.9,8.521Z" transform="translate(-298.247 -6.029)" fill="#480ca8"/>
      <path id="Path_2997" data-name="Path 2997" d="M87.048,374.291v6.27a.62.62,0,0,1-.62.62H78.38a.62.62,0,0,1-.62-.62v-6.27A1.239,1.239,0,0,1,79,373.052h6.809A1.239,1.239,0,0,1,87.048,374.291Z" transform="translate(-76.844 -351.181)" fill="#480ca8"/>
    </g>
  </g>
</svg>
