<svg xmlns="http://www.w3.org/2000/svg" width="28.5" height="28.5" viewBox="0 0 28.5 28.5">
  <path id="Icon_ionic-logo-whatsapp" data-name="Icon ionic-logo-whatsapp" d="M16.758,2.25A13.937,13.937,0,0,0,2.767,16.133,13.74,13.74,0,0,0,4.775,23.3L2.25,30.75,10,28.289A14.015,14.015,0,0,0,30.75,16.133,13.937,13.937,0,0,0,16.758,2.25Zm6.957,19.155A3.614,3.614,0,0,1,21.241,23c-.656.035-.675.509-4.252-1.045s-5.729-5.334-5.9-5.577a6.861,6.861,0,0,1-1.32-3.719A3.964,3.964,0,0,1,11.132,9.75a1.37,1.37,0,0,1,.969-.408c.282,0,.464-.008.673,0s.521-.044.792.677.919,2.491,1,2.671a.648.648,0,0,1,.006.622,2.43,2.43,0,0,1-.379.578c-.187.2-.393.448-.559.6-.186.17-.38.354-.184.717a10.706,10.706,0,0,0,1.894,2.528A9.762,9.762,0,0,0,18.151,19.6c.351.191.56.17.778-.059s.931-1,1.183-1.347.487-.278.811-.148,2.046,1.053,2.4,1.244.585.288.669.439A2.938,2.938,0,0,1,23.716,21.405Z" transform="translate(-2.25 -2.25)" fill="#480ca8"/>
</svg>
